# xmcd
#
# Track frame offsets:
#	150
#	18366
#	39636
#	56632
#	73930
#	91529
#	106736
#	123323
#	142679
#	157521
#	174973
#	192547
#	216292
#	234338
#	248757
#	267060
#	293601
#	313726
#	326209
#	346964
#
# Disc length: 4828 seconds
#
# Revision: 1
# Processed by: cddbd v1.5.2PL0 Copyright (c) Steve Scherf et al.
# Submitted via: audiograbber 1.83.01
#
DISCID=0f12da14
DTITLE=Various Artist - The Alligator Records 45th Anniversary Collection CD1
DYEAR=2016
DGENRE=Blues
TTITLE0=Lil' Ed And The Imperials - Hold That Train
TTITLE1=Son Seals - Cotton Picking Blues
TTITLE2=Shemekia Copeland - Devil's Hand
TTITLE3=Elvin Bishop - Can't Even Do Wrong Right
TTITLE4=Toronzo Cannon - Bad Contract
TTITLE5=Charlie Musselwhite - The Well
TTITLE6=Marcia Ball - The Tattooed Lady And The Alligator Man
TTITLE7=Tommy Castro And The Painkellers - Common Ground
TTITLE8=Carey and Lurrie Bell - The Road Is So Long
TTITLE9=Koko Taylor - Voodoo Woman
TTITLE10=Selwyn Birchwood - Don't Call No Ambulance
TTITLE11=Rick Estrin and The Nightcats - Callin' All Fools
TTITLE12=Joe Louis Walker - Too Drunk To Drive Drunk
TTITLE13=Lee Rocker - Crazy When She Drinks
TTITLE14=Moreland and Arbuckle - Take Me With You (When You Go)
TTITLE15=Jimmy Johnson - Your Turn To Cry
TTITLE16=Delbert McClinton - Givin' It Up For Your Love
TTITLE17=Hound Dog Taylor and The HouseRockers - Take Five
TTITLE18=Anders Osborne - Let It Go
TTITLE19=Mavis Staples - Will The Circle Be Unbroken
EXTD=
EXTT0=
EXTT1=
EXTT2=
EXTT3=
EXTT4=
EXTT5=
EXTT6=
EXTT7=
EXTT8=
EXTT9=
EXTT10=
EXTT11=
EXTT12=
EXTT13=
EXTT14=
EXTT15=
EXTT16=
EXTT17=
EXTT18=
EXTT19=
PLAYORDER=
